<svg data-v-0dd9719b="" version="1.0" xmlns="http://www.w3.org/2000/svg" xmlns:xlink="http://www.w3.org/1999/xlink" width="100%" height="100%" viewBox="0 0 340.000000 250.000000" preserveAspectRatio="xMidYMid meet" color-interpolation-filters="sRGB" style="margin: auto;">   <g data-v-0dd9719b="" fill="#333" class="icon-text-wrapper icon-svg-group iconsvg" transform="translate(46.76499938964844,90.1081657409668)"><g class="iconsvg-imagesvg" transform="matrix(1,0,0,1,0,0)" opacity="1"><g><rect fill="#333" fill-opacity="0" stroke-width="2" x="0" y="0" width="60" height="69.78367062107466" class="image-rect"></rect> <svg filter="url(#colors4744260895)" x="0" y="0" width="60" height="69.78367062107466" filtersec="colorsf6911791468" class="image-svg-svg primary" style="overflow: visible;"><svg xmlns="http://www.w3.org/2000/svg" xmlns:xlink="http://www.w3.org/1999/xlink" version="1.1" x="0px" y="0px" viewBox="5.186156272888184 0.5453602075576782 56.707794189453125 65.95464324951172" enable-background="new 0 0 67 67" xml:space="preserve"><g><path d="M49.3,10.5c-0.6,0-1,0.4-1,1v5c0,0.6,0.4,1,1,1s1-0.4,1-1v-5C50.3,10.9,49.9,10.5,49.3,10.5z"></path><path d="M25.8,50.3L20.9,51c-0.5,0.1-0.9,0.6-0.8,1.1c0.1,0.5,0.6,0.9,1.1,0.8l4.9-0.7c0.5-0.1,0.9-0.6,0.8-1.1   S26.3,50.2,25.8,50.3z"></path><path d="M49.3,37.5c0.6,0,1-0.4,1-1v-5c0-0.6-0.4-1-1-1s-1,0.4-1,1v5C48.3,37,48.8,37.5,49.3,37.5z"></path><path d="M45.6,47.4l-4.9,0.7c-0.5,0.1-0.9,0.6-0.8,1.1c0.1,0.5,0.6,0.9,1.1,0.8l4.9-0.7c0.5-0.1,0.9-0.6,0.8-1.1   S46.1,47.3,45.6,47.4z"></path><path d="M15.9,51.7L11,52.4c-0.5,0.1-0.9,0.6-0.8,1.1c0.1,0.5,0.6,0.9,1.1,0.8l4.9-0.7c0.5-0.1,0.9-0.6,0.8-1.1   S16.5,51.6,15.9,51.7z"></path><path d="M16.9,66.2c0.2,0.2,0.5,0.3,0.8,0.3l43.2-6.2c0.5-0.1,0.9-0.5,0.9-1c-0.2-45.5,0.5-46.3-0.3-47.1L50,0.8   c-0.4-0.4-1.1-0.3-1.5,0.1C35.7,16.6,18.3,37.8,5.4,53.4c0,0,0,0,0,0l0,0c-0.3,0.4-0.3,1,0.1,1.3C15.6,64.9,17,66.3,16.9,66.2z    M30.4,51.4c0.6,0.3,0.5,0,5.5-0.6c0.5-0.1,0.9-0.6,0.8-1.1s-0.6-0.9-1.1-0.8l-3.6,0.5l27.6-33.6v41.2l-1.2-1.2   c-0.4-0.4-1-0.4-1.4,0s-0.4,1,0,1.4l1.5,1.5L20,64.1L30.4,51.4z M50.3,24v-2.5c0-0.6-0.4-1-1-1s-1,0.4-1,1v5L17.5,64l-10-10   C25.3,32.4,43.8,9.8,48.3,4.3v2.2c0,0.6,0.4,1,1,1s1-0.4,1-1V3.9l9.1,9.1L50.3,24z"></path><path d="M50,47.2c0.2-0.2,0.3-0.4,0.3-0.7v-5c0-0.6-0.4-1-1-1s-1,0.4-1,1v5c0,0.3,0.1,0.5,0.3,0.7c-0.4,0.4-0.4,1,0,1.4l2.1,2.1   c0.4,0.4,1,0.4,1.4,0c0.4-0.4,0.4-1,0-1.4L50,47.2z"></path><path d="M54.3,51.4c-0.4-0.4-1-0.4-1.4,0s-0.4,1,0,1.4l2.1,2.1c0.4,0.4,1,0.4,1.4,0c0.4-0.4,0.4-1,0-1.4L54.3,51.4z"></path></g></svg></svg> <defs><filter id="colors4744260895"><feColorMatrix type="matrix" values="0 0 0 0 0.19921875  0 0 0 0 0.19921875  0 0 0 0 0.19921875  0 0 0 1 0" class="icon-fecolormatrix"></feColorMatrix></filter> <filter id="colorsf6911791468"><feColorMatrix type="matrix" values="0 0 0 0 0.99609375  0 0 0 0 0.99609375  0 0 0 0 0.99609375  0 0 0 1 0" class="icon-fecolormatrix"></feColorMatrix></filter> <filter id="colorsb8134715676"><feColorMatrix type="matrix" values="0 0 0 0 0  0 0 0 0 0  0 0 0 0 0  0 0 0 1 0" class="icon-fecolormatrix"></feColorMatrix></filter></defs></g></g> <g transform="translate(67,21.641833305358887)"><g data-gra="path-name" fill-rule="" class="tp-name iconsvg-namesvg" opacity="1" transform="matrix(1,0,0,1,0,0)"><g transform="scale(1)"><g><path d="M22.84-20.96L18.32 0 11.19 0 13.17-9.34 9.11-9.34 7.13 0 0 0 4.46-20.96 11.62-20.96 9.67-11.85 13.7-11.85 15.64-20.96 22.84-20.96ZM23.3-14.19L30.26-14.19 31.25-4.49 36.47-14.19 39.97-14.19 32.01 0Q30.83 2.08 29.6 3.2 28.38 4.32 26.95 4.85 25.51 5.38 23.78 5.46 22.05 5.54 19.83 5.54L19.83 5.54 20.33 3.27Q21.42 3.27 22.36 3.23 23.3 3.2 23.86 3.04L23.86 3.04Q24.62 2.84 24.95 2.33 25.28 1.82 25.28 0.83L25.28 0.83Q25.28 0.17 25.17-0.69 25.05-1.55 24.92-2.51L24.92-2.51 23.3-14.19ZM45.91-2.15L44.26 5.54 37.52 5.54 41.68-14.19 47.06-14.19 47.66-12.08 47.85-12.08Q49.04-13.33 50.51-13.88 51.98-14.42 53.4-14.42L53.4-14.42Q54.55-14.42 55.33-14.08 56.11-13.73 56.57-13.14 57.03-12.54 57.23-11.72 57.43-10.89 57.43-9.97L57.43-9.97Q57.43-9.5 57.36-8.58 57.29-7.66 57.06-6.52 56.83-5.38 56.4-4.17 55.97-2.97 55.26-1.98 54.55-0.99 53.48-0.36 52.41 0.26 50.92 0.26L50.92 0.26Q50.1 0.26 49.32 0.07 48.55-0.13 47.92-0.46 47.29-0.79 46.82-1.24 46.34-1.68 46.11-2.15L46.11-2.15 45.91-2.15ZM47.76-2.94L47.76-2.94Q48.55-2.94 49.08-3.78 49.6-4.62 49.93-5.76 50.26-6.9 50.41-8.04 50.56-9.17 50.56-9.74L50.56-9.74Q50.56-10.4 50.35-10.83 50.13-11.25 49.57-11.25L49.57-11.25Q48.94-11.25 48.38-10.81 47.82-10.36 47.56-10.03L47.56-10.03 46.27-3.99Q46.53-3.63 46.9-3.28 47.26-2.94 47.76-2.94ZM68.71-14.55L68.71-14.55Q72.64-14.55 74.42-13.17L74.42-13.17Q76.3-11.72 76.3-8.35L76.3-8.35Q76.3-6.27 75.61-4.6 74.92-2.94 73.66-1.85L73.66-1.85Q71.16 0.26 66.4 0.26L66.4 0.26Q62.34 0.26 60.59-1.29L60.59-1.29Q58.71-2.9 58.71-6.14L58.71-6.14Q58.71-8.28 59.59-10.03 60.46-11.78 62.11-12.94L62.11-12.94Q64.52-14.55 68.71-14.55ZM66.47-1.98L66.47-1.98Q67.29-1.98 67.9-2.9 68.51-3.83 68.88-5.17 69.24-6.5 69.42-7.94 69.6-9.37 69.6-10.43L69.6-10.43Q69.6-11.35 69.42-11.83 69.24-12.31 68.65-12.31L68.65-12.31Q67.76-12.31 67.11-11.35 66.47-10.4 66.07-9.08 65.68-7.76 65.5-6.37 65.31-4.98 65.31-4.13L65.31-4.13Q65.31-1.98 66.47-1.98ZM77.72-11.98L78.18-14.19Q79.41-14.46 80.33-14.79 81.25-15.12 82.03-15.61 82.81-16.11 83.51-16.83 84.22-17.56 85.05-18.61L85.05-18.61 88.45-18.61 87.49-14.19 90.07-14.19 89.64-11.98 87.03-11.98 85.68-5.54Q85.51-4.79 85.41-4.19 85.31-3.6 85.31-3.27L85.31-3.27Q85.31-2.61 85.79-2.44 86.27-2.28 87.59-2.28L87.59-2.28 87.1 0Q86.86 0.07 86.39 0.1 85.91 0.13 85.33 0.18 84.75 0.23 84.14 0.25 83.53 0.26 83.07 0.26L83.07 0.26Q82.24 0.26 81.45 0.15 80.66 0.03 80.03-0.31 79.41-0.66 79.03-1.32 78.65-1.98 78.65-3.1L78.65-3.1Q78.65-3.5 78.7-4.09 78.75-4.69 78.91-5.41L78.91-5.41 80.3-11.98 77.72-11.98ZM105.78-6.63L96.5-6.63Q96.37-5.91 96.32-5.25 96.27-4.59 96.27-4.06L96.27-4.06Q96.27-3.76 96.3-3.4 96.34-3.04 96.45-2.72 96.57-2.41 96.78-2.19 97-1.98 97.39-1.98L97.39-1.98Q97.69-1.98 98.07-2.18 98.45-2.38 98.83-2.74 99.21-3.1 99.55-3.63 99.9-4.16 100.1-4.82L100.1-4.82 105.51-4.82 104.65-1.29Q103.99-0.86 103.14-0.56 102.28-0.26 101.32-0.08 100.36 0.1 99.37 0.18 98.38 0.26 97.49 0.26L97.49 0.26Q95.84 0.26 94.42-0.03 93-0.33 91.95-1.06 90.89-1.78 90.28-2.99 89.67-4.19 89.67-5.97L89.67-5.97Q89.67-7.59 90.18-9.14 90.69-10.69 91.9-11.9 93.1-13.1 95.13-13.83 97.16-14.55 100.2-14.55L100.2-14.55Q103.5-14.55 105.17-13.53 106.83-12.51 106.83-10.33L106.83-10.33Q106.83-9.44 106.57-8.4 106.3-7.36 105.78-6.63L105.78-6.63ZM100.89-10.56L100.89-10.56Q100.89-11.58 100.56-11.95 100.23-12.31 99.77-12.31L99.77-12.31Q99.24-12.31 98.8-11.96 98.35-11.62 97.99-11.04 97.62-10.46 97.33-9.72 97.03-8.98 96.83-8.15L96.83-8.15 100.59-8.15Q100.66-8.55 100.73-8.98L100.73-8.98Q100.79-9.34 100.84-9.77 100.89-10.2 100.89-10.56ZM116.01-12.08L116.2-12.08Q116.9-12.74 117.76-13.3L117.76-13.3Q118.51-13.76 119.54-14.16 120.56-14.55 121.82-14.55L121.82-14.55Q123.53-14.55 124.65-13.68 125.78-12.81 125.78-11.29L125.78-11.29Q125.78-10.86 125.68-10.25 125.58-9.64 125.45-8.98 125.31-8.32 125.17-7.64 125.02-6.96 124.92-6.44L124.92-6.44 123.53 0 116.83 0 118.65-8.61Q118.71-9.04 118.81-9.49 118.91-9.93 118.91-10.3L118.91-10.3Q118.91-10.79 118.66-11.11 118.42-11.42 117.92-11.42L117.92-11.42Q117.33-11.42 116.78-10.99 116.24-10.56 115.94-10.26L115.94-10.26 113.76 0 107.03 0 110.03-14.19 115.41-14.19 116.01-12.08ZM136.8-3.93L139.01-14.19 145.74-14.19 142.71 0 137.36 0 136.77-2.11 136.57-2.11Q135.71-1.09 134.24-0.41 132.77 0.26 131.29 0.26L131.29 0.26Q129.31 0.26 128.18-0.74 127.06-1.75 127.06-3.37L127.06-3.37Q127.06-4.19 127.34-5.43 127.62-6.67 127.85-7.76L127.85-7.76 129.24-14.19 135.94-14.19 134.29-6.47Q134.22-6.2 134.16-5.84 134.09-5.48 134.03-5.13 133.96-4.79 133.91-4.47 133.86-4.16 133.86-3.96L133.86-3.96Q133.86-3.47 134.08-3.12 134.29-2.77 134.85-2.77L134.85-2.77Q135.45-2.77 135.97-3.17 136.5-3.56 136.8-3.93L136.8-3.93ZM160.43-10.03L156.14-10.03Q156.17-10.2 156.2-10.36 156.24-10.53 156.24-10.73L156.24-10.73Q156.24-11.32 156.02-11.83 155.81-12.34 155.18-12.34L155.18-12.34Q154.62-12.34 154.06-11.86 153.5-11.39 153.5-10.59L153.5-10.59Q153.5-10.07 153.78-9.75 154.06-9.44 154.52-9.24 154.98-9.04 155.56-8.91 156.14-8.78 156.7-8.65L156.7-8.65Q157.49-8.45 158.2-8.17 158.91-7.89 159.47-7.43 160.03-6.96 160.36-6.29 160.69-5.61 160.69-4.62L160.69-4.62Q160.69-3.23 160.05-2.29 159.41-1.35 158.27-0.78 157.13-0.2 155.59 0.03 154.06 0.26 152.31 0.26L152.31 0.26Q149.64 0.26 147.89-0.13 146.14-0.53 145.45-0.89L145.45-0.89 146.14-4.19 150.59-4.19Q150.56-4.03 150.56-3.88 150.56-3.73 150.56-3.56L150.56-3.56Q150.56-2.81 150.91-2.36 151.25-1.91 152.11-1.91L152.11-1.91Q153.07-1.91 153.48-2.46 153.89-3 153.89-3.47L153.89-3.47Q153.89-3.93 153.55-4.27 153.2-4.62 152.67-4.87 152.15-5.12 151.5-5.3 150.86-5.48 150.26-5.64L150.26-5.64Q149.83-5.74 149.29-5.97 148.75-6.2 148.25-6.63 147.76-7.06 147.43-7.74 147.1-8.42 147.1-9.44L147.1-9.44Q147.1-10.89 147.81-11.86 148.51-12.84 149.65-13.43 150.79-14.03 152.23-14.29 153.66-14.55 155.12-14.55L155.12-14.55Q156.93-14.55 158.55-14.22 160.17-13.89 161.19-13.37L161.19-13.37 160.43-10.03ZM178.42-6.63L169.14-6.63Q169.01-5.91 168.96-5.25 168.91-4.59 168.91-4.06L168.91-4.06Q168.91-3.76 168.94-3.4 168.98-3.04 169.09-2.72 169.21-2.41 169.42-2.19 169.64-1.98 170.03-1.98L170.03-1.98Q170.33-1.98 170.71-2.18 171.09-2.38 171.47-2.74 171.85-3.1 172.19-3.63 172.54-4.16 172.74-4.82L172.74-4.82 178.15-4.82 177.29-1.29Q176.63-0.86 175.78-0.56 174.92-0.26 173.96-0.08 173 0.1 172.01 0.18 171.02 0.26 170.13 0.26L170.13 0.26Q168.48 0.26 167.06-0.03 165.64-0.33 164.59-1.06 163.53-1.78 162.92-2.99 162.31-4.19 162.31-5.97L162.31-5.97Q162.31-7.59 162.82-9.14 163.33-10.69 164.54-11.9 165.74-13.1 167.77-13.83 169.8-14.55 172.84-14.55L172.84-14.55Q176.14-14.55 177.81-13.53 179.47-12.51 179.47-10.33L179.47-10.33Q179.47-9.44 179.21-8.4 178.94-7.36 178.42-6.63L178.42-6.63ZM173.53-10.56L173.53-10.56Q173.53-11.58 173.2-11.95 172.87-12.31 172.41-12.31L172.41-12.31Q171.88-12.31 171.44-11.96 170.99-11.62 170.63-11.04 170.26-10.46 169.97-9.72 169.67-8.98 169.47-8.15L169.47-8.15 173.23-8.15Q173.3-8.55 173.37-8.98L173.37-8.98Q173.43-9.34 173.48-9.77 173.53-10.2 173.53-10.56Z" transform="translate(0, 20.959999084472656)"></path></g> <!----> <!----> <!----> <!----> <!----> <!----> <!----></g></g> <!----></g></g><defs v-gra="od"></defs></svg>