<?xml version="1.0" encoding="UTF-8" standalone="no"?>
<svg
   data-v-0dd9719b=""
   version="1.0"
   width="246.47"
   height="69.783669"
   viewBox="0 0 246.47 69.783669"
   preserveAspectRatio="xMidYMid"
   color-interpolation-filters="sRGB"
   id="svg17"
   sodipodi:docname="logo.svg"
   inkscape:version="1.4.2 (f4327f4, 2025-05-13)"
   xmlns:inkscape="http://www.inkscape.org/namespaces/inkscape"
   xmlns:sodipodi="http://sodipodi.sourceforge.net/DTD/sodipodi-0.dtd"
   xmlns="http://www.w3.org/2000/svg"
   xmlns:svg="http://www.w3.org/2000/svg">
  <sodipodi:namedview
     id="namedview17"
     pagecolor="#ffffff"
     bordercolor="#000000"
     borderopacity="0.25"
     inkscape:showpageshadow="2"
     inkscape:pageopacity="0.0"
     inkscape:pagecheckerboard="0"
     inkscape:deskcolor="#d1d1d1"
     inkscape:zoom="2.8284271"
     inkscape:cx="121.44559"
     inkscape:cy="36.946329"
     inkscape:window-width="1366"
     inkscape:window-height="697"
     inkscape:window-x="-8"
     inkscape:window-y="-8"
     inkscape:window-maximized="1"
     inkscape:current-layer="svg17" />
  <g
     data-v-0dd9719b=""
     fill="#333333"
     class="icon-text-wrapper icon-svg-group iconsvg"
     id="g17">
    <g
       class="iconsvg-imagesvg"
       opacity="1"
       id="g12">
      <g
         id="g11">
        <rect
           fill="#333333"
           fill-opacity="0"
           stroke-width="2"
           x="0"
           y="0"
           width="60"
           height="69.783669"
           class="image-rect"
           id="rect1" />
        <svg
           filter="url(#colors4744260895)"
           x="0"
           y="0"
           width="60"
           height="69.783669"
           filtersec="colorsf6911791468"
           class="image-svg-svg primary"
           style="overflow:visible"
           version="1.1"
           id="svg9">
          <svg
             version="1.1"
             x="0px"
             y="0px"
             viewBox="5.1861563 0.54536021 56.707794 65.954643"
             enable-background="new 0 0 67 67"
             xml:space="preserve"
             id="svg8"
             width="100%"
             height="100%"><g
               id="g8"><path
                 d="m 49.3,10.5 c -0.6,0 -1,0.4 -1,1 v 5 c 0,0.6 0.4,1 1,1 0.6,0 1,-0.4 1,-1 v -5 c 0,-0.6 -0.4,-1 -1,-1 z"
                 id="path1" /><path
                 d="M 25.8,50.3 20.9,51 c -0.5,0.1 -0.9,0.6 -0.8,1.1 0.1,0.5 0.6,0.9 1.1,0.8 l 4.9,-0.7 c 0.5,-0.1 0.9,-0.6 0.8,-1.1 -0.1,-0.5 -0.6,-0.9 -1.1,-0.8 z"
                 id="path2" /><path
                 d="m 49.3,37.5 c 0.6,0 1,-0.4 1,-1 v -5 c 0,-0.6 -0.4,-1 -1,-1 -0.6,0 -1,0.4 -1,1 v 5 c 0,0.5 0.5,1 1,1 z"
                 id="path3" /><path
                 d="m 45.6,47.4 -4.9,0.7 c -0.5,0.1 -0.9,0.6 -0.8,1.1 0.1,0.5 0.6,0.9 1.1,0.8 l 4.9,-0.7 c 0.5,-0.1 0.9,-0.6 0.8,-1.1 -0.1,-0.5 -0.6,-0.9 -1.1,-0.8 z"
                 id="path4" /><path
                 d="M 15.9,51.7 11,52.4 c -0.5,0.1 -0.9,0.6 -0.8,1.1 0.1,0.5 0.6,0.9 1.1,0.8 l 4.9,-0.7 C 16.7,53.5 17.1,53 17,52.5 16.9,52 16.5,51.6 15.9,51.7 Z"
                 id="path5" /><path
                 d="m 16.9,66.2 c 0.2,0.2 0.5,0.3 0.8,0.3 l 43.2,-6.2 c 0.5,-0.1 0.9,-0.5 0.9,-1 C 61.6,13.8 62.3,13 61.5,12.2 L 50,0.8 C 49.6,0.4 48.9,0.5 48.5,0.9 35.7,16.6 18.3,37.8 5.4,53.4 c 0,0 0,0 0,0 v 0 c -0.3,0.4 -0.3,1 0.1,1.3 C 15.6,64.9 17,66.3 16.9,66.2 Z M 30.4,51.4 c 0.6,0.3 0.5,0 5.5,-0.6 0.5,-0.1 0.9,-0.6 0.8,-1.1 -0.1,-0.5 -0.6,-0.9 -1.1,-0.8 L 32,49.4 59.6,15.8 V 57 l -1.2,-1.2 c -0.4,-0.4 -1,-0.4 -1.4,0 -0.4,0.4 -0.4,1 0,1.4 L 58.5,58.7 20,64.1 Z M 50.3,24 v -2.5 c 0,-0.6 -0.4,-1 -1,-1 -0.6,0 -1,0.4 -1,1 v 5 L 17.5,64 7.5,54 C 25.3,32.4 43.8,9.8 48.3,4.3 v 2.2 c 0,0.6 0.4,1 1,1 0.6,0 1,-0.4 1,-1 V 3.9 l 9.1,9.1 z"
                 id="path6" /><path
                 d="m 50,47.2 c 0.2,-0.2 0.3,-0.4 0.3,-0.7 v -5 c 0,-0.6 -0.4,-1 -1,-1 -0.6,0 -1,0.4 -1,1 v 5 c 0,0.3 0.1,0.5 0.3,0.7 -0.4,0.4 -0.4,1 0,1.4 l 2.1,2.1 c 0.4,0.4 1,0.4 1.4,0 0.4,-0.4 0.4,-1 0,-1.4 z"
                 id="path7" /><path
                 d="m 54.3,51.4 c -0.4,-0.4 -1,-0.4 -1.4,0 -0.4,0.4 -0.4,1 0,1.4 l 2.1,2.1 c 0.4,0.4 1,0.4 1.4,0 0.4,-0.4 0.4,-1 0,-1.4 z"
                 id="path8" /></g></svg>
        </svg>
        <defs
           id="defs11">
          <filter
             id="colors4744260895"
             x="0"
             y="0"
             width="1"
             height="1">
            <feColorMatrix
               type="matrix"
               values="0 0 0 0 0.19921875  0 0 0 0 0.19921875  0 0 0 0 0.19921875  0 0 0 1 0"
               class="icon-fecolormatrix"
               id="feColorMatrix9" />
          </filter>
          <filter
             id="colorsf6911791468">
            <feColorMatrix
               type="matrix"
               values="0 0 0 0 0.99609375  0 0 0 0 0.99609375  0 0 0 0 0.99609375  0 0 0 1 0"
               class="icon-fecolormatrix"
               id="feColorMatrix10" />
          </filter>
          <filter
             id="colorsb8134715676">
            <feColorMatrix
               type="matrix"
               values="0 0 0 0 0  0 0 0 0 0  0 0 0 0 0  0 0 0 1 0"
               class="icon-fecolormatrix"
               id="feColorMatrix11" />
          </filter>
        </defs>
      </g>
    </g>
    <g
       transform="translate(67,21.641833)"
       id="g16">
      <g
         data-gra="path-name"
         fill-rule=""
         class="tp-name iconsvg-namesvg"
         opacity="1"
         id="g15">
        <g
           id="g14">
          <g
             id="g13">
            <path
               d="M 22.84,-20.96 18.32,0 h -7.13 l 1.98,-9.34 H 9.11 L 7.13,0 H 0 l 4.46,-20.96 h 7.16 l -1.95,9.11 h 4.03 l 1.94,-9.11 z m 0.46,6.77 h 6.96 l 0.99,9.7 5.22,-9.7 h 3.5 L 32.01,0 Q 30.83,2.08 29.6,3.2 28.38,4.32 26.95,4.85 25.51,5.38 23.78,5.46 22.05,5.54 19.83,5.54 v 0 l 0.5,-2.27 q 1.09,0 2.03,-0.04 0.94,-0.03 1.5,-0.19 v 0 q 0.76,-0.2 1.09,-0.71 0.33,-0.51 0.33,-1.5 v 0 q 0,-0.66 -0.11,-1.52 -0.12,-0.86 -0.25,-1.82 v 0 z m 22.61,12.04 -1.65,7.69 h -6.74 l 4.16,-19.73 h 5.38 l 0.6,2.11 h 0.19 q 1.19,-1.25 2.66,-1.8 1.47,-0.54 2.89,-0.54 v 0 q 1.15,0 1.93,0.34 0.78,0.35 1.24,0.94 0.46,0.6 0.66,1.42 0.2,0.83 0.2,1.75 v 0 q 0,0.47 -0.07,1.39 -0.07,0.92 -0.3,2.06 -0.23,1.14 -0.66,2.35 -0.43,1.2 -1.14,2.19 -0.71,0.99 -1.78,1.62 -1.07,0.62 -2.56,0.62 v 0 q -0.82,0 -1.6,-0.19 -0.77,-0.2 -1.4,-0.53 -0.63,-0.33 -1.1,-0.78 -0.48,-0.44 -0.71,-0.91 v 0 z m 1.85,-0.79 v 0 q 0.79,0 1.32,-0.84 0.52,-0.84 0.85,-1.98 0.33,-1.14 0.48,-2.28 0.15,-1.13 0.15,-1.7 v 0 q 0,-0.66 -0.21,-1.09 -0.22,-0.42 -0.78,-0.42 v 0 q -0.63,0 -1.19,0.44 -0.56,0.45 -0.82,0.78 v 0 l -1.29,6.04 q 0.26,0.36 0.63,0.71 0.36,0.34 0.86,0.34 z m 20.95,-11.61 v 0 q 3.93,0 5.71,1.38 v 0 q 1.88,1.45 1.88,4.82 v 0 q 0,2.08 -0.69,3.75 -0.69,1.66 -1.95,2.75 v 0 q -2.5,2.11 -7.26,2.11 v 0 q -4.06,0 -5.81,-1.55 v 0 Q 58.71,-2.9 58.71,-6.14 v 0 q 0,-2.14 0.88,-3.89 0.87,-1.75 2.52,-2.91 v 0 q 2.41,-1.61 6.6,-1.61 z m -2.24,12.57 v 0 q 0.82,0 1.43,-0.92 0.61,-0.93 0.98,-2.27 0.36,-1.33 0.54,-2.77 0.18,-1.43 0.18,-2.49 v 0 q 0,-0.92 -0.18,-1.4 -0.18,-0.48 -0.77,-0.48 v 0 q -0.89,0 -1.54,0.96 -0.64,0.95 -1.04,2.27 -0.39,1.32 -0.57,2.71 -0.19,1.39 -0.19,2.24 v 0 q 0,2.15 1.16,2.15 z m 11.25,-10 0.46,-2.21 q 1.23,-0.27 2.15,-0.6 0.92,-0.33 1.7,-0.82 0.78,-0.5 1.48,-1.22 0.71,-0.73 1.54,-1.78 v 0 h 3.4 l -0.96,4.42 h 2.58 l -0.43,2.21 h -2.61 l -1.35,6.44 q -0.17,0.75 -0.27,1.35 -0.1,0.59 -0.1,0.92 v 0 q 0,0.66 0.48,0.83 0.48,0.16 1.8,0.16 v 0 L 87.1,0 q -0.24,0.07 -0.71,0.1 -0.48,0.03 -1.06,0.08 -0.58,0.05 -1.19,0.07 -0.61,0.01 -1.07,0.01 v 0 q -0.83,0 -1.62,-0.11 -0.79,-0.12 -1.42,-0.46 -0.62,-0.35 -1,-1.01 -0.38,-0.66 -0.38,-1.78 v 0 q 0,-0.4 0.05,-0.99 0.05,-0.6 0.21,-1.32 v 0 l 1.39,-6.57 z m 28.06,5.35 H 96.5 q -0.13,0.72 -0.18,1.38 -0.05,0.66 -0.05,1.19 v 0 q 0,0.3 0.03,0.66 0.04,0.36 0.15,0.68 0.12,0.31 0.33,0.53 0.22,0.21 0.61,0.21 v 0 q 0.3,0 0.68,-0.2 0.38,-0.2 0.76,-0.56 0.38,-0.36 0.72,-0.89 0.35,-0.53 0.55,-1.19 v 0 h 5.41 l -0.86,3.53 q -0.66,0.43 -1.51,0.73 -0.86,0.3 -1.82,0.48 -0.96,0.18 -1.95,0.26 -0.99,0.08 -1.88,0.08 v 0 q -1.65,0 -3.07,-0.29 -1.42,-0.3 -2.47,-1.03 -1.06,-0.72 -1.67,-1.93 -0.61,-1.2 -0.61,-2.98 v 0 q 0,-1.62 0.51,-3.17 0.51,-1.55 1.72,-2.76 1.2,-1.2 3.23,-1.93 2.03,-0.72 5.07,-0.72 v 0 q 3.3,0 4.97,1.02 1.66,1.02 1.66,3.2 v 0 q 0,0.89 -0.26,1.93 -0.27,1.04 -0.79,1.77 z m -4.89,-3.93 v 0 q 0,-1.02 -0.33,-1.39 -0.33,-0.36 -0.79,-0.36 v 0 q -0.53,0 -0.97,0.35 -0.45,0.34 -0.81,0.92 -0.37,0.58 -0.66,1.32 -0.3,0.74 -0.5,1.57 v 0 h 3.76 q 0.07,-0.4 0.14,-0.83 v 0 q 0.06,-0.36 0.11,-0.79 0.05,-0.43 0.05,-0.79 z m 15.12,-1.52 h 0.19 q 0.7,-0.66 1.56,-1.22 v 0 q 0.75,-0.46 1.78,-0.86 1.02,-0.39 2.28,-0.39 v 0 q 1.71,0 2.83,0.87 1.13,0.87 1.13,2.39 v 0 q 0,0.43 -0.1,1.04 -0.1,0.61 -0.23,1.27 -0.14,0.66 -0.28,1.34 -0.15,0.68 -0.25,1.2 v 0 L 123.53,0 h -6.7 l 1.82,-8.61 q 0.06,-0.43 0.16,-0.88 0.1,-0.44 0.1,-0.81 v 0 q 0,-0.49 -0.25,-0.81 -0.24,-0.31 -0.74,-0.31 v 0 q -0.59,0 -1.14,0.43 -0.54,0.43 -0.84,0.73 v 0 L 113.76,0 h -6.73 l 3,-14.19 h 5.38 z m 20.79,8.15 2.21,-10.26 h 6.73 L 142.71,0 h -5.35 l -0.59,-2.11 h -0.2 q -0.86,1.02 -2.33,1.7 -1.47,0.67 -2.95,0.67 v 0 q -1.98,0 -3.11,-1 -1.12,-1.01 -1.12,-2.63 v 0 q 0,-0.82 0.28,-2.06 0.28,-1.24 0.51,-2.33 v 0 l 1.39,-6.43 h 6.7 l -1.65,7.72 q -0.07,0.27 -0.13,0.63 -0.07,0.36 -0.13,0.71 -0.07,0.34 -0.12,0.66 -0.05,0.31 -0.05,0.51 v 0 q 0,0.49 0.22,0.84 0.21,0.35 0.77,0.35 v 0 q 0.6,0 1.12,-0.4 0.53,-0.39 0.83,-0.76 z m 23.63,-6.1 h -4.29 q 0.03,-0.17 0.06,-0.33 0.04,-0.17 0.04,-0.37 v 0 q 0,-0.59 -0.22,-1.1 -0.21,-0.51 -0.84,-0.51 v 0 q -0.56,0 -1.12,0.48 -0.56,0.47 -0.56,1.27 v 0 q 0,0.52 0.28,0.84 0.28,0.31 0.74,0.51 0.46,0.2 1.04,0.33 0.58,0.13 1.14,0.26 v 0 q 0.79,0.2 1.5,0.48 0.71,0.28 1.27,0.74 0.56,0.47 0.89,1.14 0.33,0.68 0.33,1.67 v 0 q 0,1.39 -0.64,2.33 -0.64,0.94 -1.78,1.51 -1.14,0.58 -2.68,0.81 -1.53,0.23 -3.28,0.23 v 0 q -2.67,0 -4.42,-0.39 -1.75,-0.4 -2.44,-0.76 v 0 l 0.69,-3.3 h 4.45 q -0.03,0.16 -0.03,0.31 0,0.15 0,0.32 v 0 q 0,0.75 0.35,1.2 0.34,0.45 1.2,0.45 v 0 q 0.96,0 1.37,-0.55 0.41,-0.54 0.41,-1.01 v 0 q 0,-0.46 -0.34,-0.8 -0.35,-0.35 -0.88,-0.6 -0.52,-0.25 -1.17,-0.43 -0.64,-0.18 -1.24,-0.34 v 0 q -0.43,-0.1 -0.97,-0.33 -0.54,-0.23 -1.04,-0.66 -0.49,-0.43 -0.82,-1.11 -0.33,-0.68 -0.33,-1.7 v 0 q 0,-1.45 0.71,-2.42 0.7,-0.98 1.84,-1.57 1.14,-0.6 2.58,-0.86 1.43,-0.26 2.89,-0.26 v 0 q 1.81,0 3.43,0.33 1.62,0.33 2.64,0.85 v 0 z m 17.99,3.4 h -9.28 q -0.13,0.72 -0.18,1.38 -0.05,0.66 -0.05,1.19 v 0 q 0,0.3 0.03,0.66 0.04,0.36 0.15,0.68 0.12,0.31 0.33,0.53 0.22,0.21 0.61,0.21 v 0 q 0.3,0 0.68,-0.2 0.38,-0.2 0.76,-0.56 0.38,-0.36 0.72,-0.89 0.35,-0.53 0.55,-1.19 v 0 h 5.41 l -0.86,3.53 q -0.66,0.43 -1.51,0.73 -0.86,0.3 -1.82,0.48 -0.96,0.18 -1.95,0.26 -0.99,0.08 -1.88,0.08 v 0 q -1.65,0 -3.07,-0.29 -1.42,-0.3 -2.47,-1.03 -1.06,-0.72 -1.67,-1.93 -0.61,-1.2 -0.61,-2.98 v 0 q 0,-1.62 0.51,-3.17 0.51,-1.55 1.72,-2.76 1.2,-1.2 3.23,-1.93 2.03,-0.72 5.07,-0.72 v 0 q 3.3,0 4.97,1.02 1.66,1.02 1.66,3.2 v 0 q 0,0.89 -0.26,1.93 -0.27,1.04 -0.79,1.77 z m -4.89,-3.93 v 0 q 0,-1.02 -0.33,-1.39 -0.33,-0.36 -0.79,-0.36 v 0 q -0.53,0 -0.97,0.35 -0.45,0.34 -0.81,0.92 -0.37,0.58 -0.66,1.32 -0.3,0.74 -0.5,1.57 v 0 h 3.76 q 0.07,-0.4 0.14,-0.83 v 0 q 0.06,-0.36 0.11,-0.79 0.05,-0.43 0.05,-0.79 z"
               transform="translate(0,20.959999)"
               id="path12" />
          </g>
          <!---->
          <!---->
          <!---->
          <!---->
          <!---->
          <!---->
          <!---->
        </g>
      </g>
      <!---->
    </g>
  </g>
  <defs
     v-gra="od"
     id="defs17" />
</svg>
